<svg width="1152" height="430" viewBox="0 0 1152 430" fill="none" xmlns="http://www.w3.org/2000/svg">
<line x1="618.5" y1="-2.18557e-08" x2="618.5" y2="428" stroke="#404040" stroke-dasharray="8 8"/>
<line x1="702.5" y1="-2.18557e-08" x2="702.5" y2="428" stroke="#404040" stroke-dasharray="8 8"/>
<line x1="366.5" y1="-2.18557e-08" x2="366.5" y2="428" stroke="#404040" stroke-dasharray="8 8"/>
<line x1="282.5" y1="-2.18557e-08" x2="282.5" y2="428" stroke="#404040" stroke-dasharray="8 8"/>
<line x1="786.5" y1="-2.18557e-08" x2="786.5" y2="428" stroke="#404040" stroke-dasharray="8 8"/>
<line x1="870.5" y1="2" x2="870.5" y2="430" stroke="#404040" stroke-dasharray="8 8"/>
<line x1="450.5" y1="-2.18557e-08" x2="450.5" y2="428" stroke="#404040" stroke-dasharray="8 8"/>
<line x1="1152" y1="300.5" x2="-6.70686e-08" y2="300.5" stroke="#404040"/>
<line x1="1152" y1="384.5" x2="-6.70686e-08" y2="384.5" stroke="#404040"/>
<line x1="1152" y1="216.5" x2="-6.70686e-08" y2="216.5" stroke="#404040"/>
<line x1="1152" y1="132.5" x2="-6.70686e-08" y2="132.5" stroke="#404040"/>
<line x1="1152" y1="48.5" x2="-6.70686e-08" y2="48.4999" stroke="#404040"/>
<line x1="534.5" y1="-2.18557e-08" x2="534.5" y2="428" stroke="#404040" stroke-dasharray="8 8"/>
<rect x="398.5" y="165.5" width="230" height="261" rx="5.5" fill="black"/>
<g clip-path="url(#clip0_906_263)">
<rect x="418" y="185" width="191" height="18" rx="4" fill="#262626"/>
</g>
<g clip-path="url(#clip1_906_263)">
<rect x="418" y="213" width="90.2222" height="58" rx="4" fill="#262626"/>
<rect x="518.778" y="213" width="90.2222" height="58" rx="4" fill="#262626"/>
<rect x="418" y="281" width="90.2222" height="58" rx="4" fill="#262626"/>
<rect x="518.778" y="281" width="90.2222" height="58" rx="4" fill="#262626"/>
<rect x="418" y="349" width="90.2222" height="58" rx="4" fill="#262626"/>
<rect x="518.778" y="349" width="90.2222" height="58" rx="4" fill="#262626"/>
</g>
<rect x="398.5" y="165.5" width="230" height="261" rx="5.5" stroke="#404040"/>
<rect x="523.5" y="242.5" width="230" height="187" rx="5.5" fill="black"/>
<rect x="563.5" y="262" width="150" height="18" rx="4" fill="#262626"/>
<rect x="543" y="290" width="191" height="120" rx="4" fill="#262626"/>
<mask id="mask0_906_263" style="mask-type:alpha" maskUnits="userSpaceOnUse" x="627" y="338" width="24" height="24">
<rect x="627" y="338" width="24" height="24" fill="#D9D9D9"/>
</mask>
<g mask="url(#mask0_906_263)">
<path d="M635 357V343L646 350L635 357ZM637 353.35L642.25 350L637 346.65V353.35Z" fill="#A3A3A3"/>
</g>
<rect x="523.5" y="242.5" width="230" height="187" rx="5.5" stroke="#404040"/>
<path d="M326.82 324.545L326.82 324.546C326.286 327.914 325.57 332.322 325.121 335.088C325.055 335.499 324.994 335.874 324.94 336.203L324.94 336.203L324.94 336.205C324.847 336.761 324.772 337.274 324.724 337.651C324.721 337.677 324.718 337.702 324.715 337.727C324.817 337.709 324.931 337.685 325.052 337.658C325.527 337.55 326.047 337.389 326.353 337.245L326.353 337.245L326.361 337.241C326.711 337.084 327.122 336.829 327.278 336.708L327.582 336.452L328.242 335.755C328.584 335.328 328.718 335.156 328.87 334.763C329.039 334.323 329.217 333.634 329.587 332.173L329.587 332.173L329.588 332.169L330.426 328.975C330.516 328.592 331.181 326.011 331.907 323.221C332.274 321.815 332.607 320.523 332.848 319.574C332.953 319.159 333.041 318.81 333.107 318.546C333.008 318.542 332.897 318.537 332.775 318.533C332.207 318.513 331.42 318.5 330.552 318.5H327.793L327.58 319.839L327.579 319.841C327.419 320.815 327.073 322.934 326.82 324.545Z" stroke="#404040"/>
<path d="M317.51 327.275L317.51 327.275L317.506 327.275C316.656 327.281 315.884 327.298 315.327 327.318C315.269 327.32 315.213 327.322 315.16 327.324L316.114 329.054L316.114 329.054L316.118 329.062L316.952 330.64L317.049 330.769L317.073 330.801L317.091 330.837L317.65 331.902C317.848 332.271 317.97 332.49 318.055 332.639C318.076 332.677 318.096 332.712 318.115 332.745C318.166 332.835 318.207 332.906 318.246 332.981L318.246 332.981L318.251 332.991L318.436 333.362L318.489 333.467V333.529C318.498 333.549 318.511 333.576 318.53 333.613C318.583 333.712 318.663 333.845 318.767 334.006C318.975 334.324 319.255 334.718 319.541 335.105C319.825 335.491 320.11 335.865 320.325 336.143C320.432 336.282 320.521 336.397 320.583 336.476L320.655 336.568L320.674 336.592L320.678 336.597L320.68 336.6C320.684 336.605 320.692 336.614 320.704 336.627C320.728 336.653 320.768 336.694 320.825 336.746C320.938 336.848 321.117 336.992 321.366 337.138C321.803 337.393 322.465 337.661 323.388 337.728C323.386 337.618 323.374 337.483 323.349 337.324C323.285 336.918 323.151 336.423 322.989 335.921C322.666 334.917 322.257 333.967 322.178 333.809L322.156 333.765L322.143 333.717L321.526 331.456C321.45 331.19 321.367 330.901 321.284 330.608C321.06 329.821 320.828 329.011 320.711 328.571L320.707 328.556L320.704 328.542L320.704 328.542L320.704 328.542L320.704 328.542L320.704 328.541L320.704 328.539L320.702 328.531L320.694 328.495C320.688 328.464 320.678 328.418 320.665 328.362C320.64 328.249 320.603 328.093 320.559 327.924C320.499 327.691 320.431 327.457 320.363 327.27C320.201 327.266 319.98 327.263 319.713 327.261C319.136 327.258 318.353 327.261 317.51 327.275ZM318.478 333.501C318.478 333.5 318.479 333.502 318.48 333.506C318.479 333.503 318.478 333.501 318.478 333.501Z" stroke="#404040"/>
<path d="M303.947 338.668C304.361 338.735 304.771 338.801 305.118 338.857C305.118 338.857 305.118 338.857 305.118 338.857L309.917 339.631L309.918 339.631C313.971 340.298 316.449 340.701 317.945 340.937C318.693 341.055 319.194 341.132 319.522 341.178C319.589 341.188 319.648 341.196 319.701 341.203C319.7 341.2 319.7 341.198 319.699 341.195L319.699 341.195L319.699 341.189C319.663 340.918 319.574 340.532 319.463 340.153C319.353 339.777 319.232 339.449 319.142 339.269L318.966 338.965L318.65 338.564L318.629 338.54C318.609 338.518 318.58 338.485 318.543 338.445C318.469 338.364 318.364 338.252 318.242 338.129C317.991 337.876 317.695 337.605 317.455 337.449C316.96 337.126 316.408 336.915 314.755 336.502L314.755 336.502L314.748 336.5L311.835 335.728C310.764 335.475 302.604 333.339 300.525 332.784C300.503 333.212 300.5 333.974 300.5 335.323V338.106C300.656 338.135 301.043 338.198 301.502 338.272C301.707 338.305 301.927 338.341 302.147 338.377C302.599 338.451 303.279 338.561 303.947 338.668ZM300.561 332.436C300.561 332.436 300.56 332.436 300.56 332.437L300.561 332.436Z" stroke="#404040"/>
<path d="M338.135 333.442L338.134 333.443C337.949 333.543 337.838 333.601 337.762 333.641C337.692 333.678 337.651 333.699 337.608 333.724C337.543 333.761 337.49 333.797 337.293 333.928C337.26 333.95 337.224 333.974 337.183 334.001L336.627 334.373L336.601 334.39L336.573 334.404C336.431 334.475 336.278 334.536 336.116 334.602C336.044 334.631 335.971 334.661 335.896 334.692C335.632 334.803 335.272 334.965 334.72 335.257C334.143 335.57 333.494 335.919 332.92 336.227C332.385 336.515 331.915 336.767 331.631 336.922C331.055 337.237 329.989 337.88 329.262 338.706C329.118 338.871 328.965 339.119 328.84 339.346C328.78 339.456 328.73 339.553 328.696 339.624C328.678 339.659 328.665 339.686 328.656 339.705L328.654 339.709L328.478 340.237L328.472 340.256L328.464 340.274L328.464 340.274L328.464 340.274L328.464 340.275L328.464 340.275L328.464 340.275L328.463 340.277L328.459 340.287C328.455 340.297 328.449 340.312 328.441 340.331C328.426 340.369 328.406 340.422 328.385 340.483C328.339 340.613 328.3 340.746 328.287 340.835C328.268 340.969 328.243 341.122 328.217 341.266C328.231 341.263 328.246 341.259 328.26 341.255C328.583 341.172 329.029 341.052 329.558 340.908C330.616 340.619 332.001 340.232 333.381 339.841C334.762 339.451 336.136 339.056 337.175 338.753C337.694 338.601 338.127 338.472 338.435 338.377C338.51 338.354 338.576 338.334 338.634 338.315C338.642 338.158 338.649 337.944 338.654 337.685C338.666 337.107 338.669 336.318 338.662 335.462C338.662 335.461 338.662 335.461 338.662 335.46L338.633 333.171L338.135 333.442ZM327.767 341.374C327.764 341.375 327.762 341.375 327.762 341.375C327.762 341.375 327.764 341.375 327.767 341.374Z" stroke="#404040"/>
<path d="M318.88 342.841L318.88 342.841L318.87 342.844C318.686 342.899 318.499 342.954 318.327 343.006C317.964 343.114 317.665 343.203 317.583 343.223C317.485 343.248 316.945 343.393 316.403 343.551C316.127 343.632 315.832 343.716 315.579 343.788C315.531 343.801 315.485 343.814 315.441 343.826C315.249 343.881 315.093 343.925 315.004 343.951L314.996 343.954L314.988 343.956C313.972 344.22 310.148 345.322 309.587 345.496L309.306 345.585L309.271 348.425L309.271 348.426C309.259 349.396 309.258 350.144 309.27 350.66C309.319 350.632 309.37 350.605 309.42 350.579C309.471 350.554 309.524 350.529 309.592 350.497C310.017 350.296 311.056 349.806 316.252 347.006L316.253 347.005C316.798 346.714 317.375 346.287 317.842 345.901C318.073 345.709 318.272 345.531 318.42 345.391C318.494 345.321 318.553 345.262 318.597 345.217C318.632 345.18 318.649 345.16 318.655 345.154C318.657 345.151 318.657 345.151 318.656 345.152C318.719 345.066 318.768 344.989 318.8 344.935C318.816 344.908 318.828 344.887 318.836 344.873L318.843 344.86C318.898 344.751 318.957 344.65 319.017 344.545C319.201 344.228 319.404 343.876 319.591 343.159L319.591 343.159L319.591 343.156C319.662 342.891 319.698 342.765 319.72 342.691C319.732 342.648 319.739 342.622 319.745 342.597C319.724 342.602 319.703 342.608 319.68 342.613C319.45 342.671 319.163 342.751 318.88 342.841ZM319.062 345.445C318.917 345.646 317.662 346.819 316.489 347.446L320.075 343.285C319.87 344.074 319.624 344.497 319.438 344.819C319.381 344.916 319.33 345.003 319.288 345.089C319.288 345.089 319.206 345.245 319.062 345.445ZM320.075 342.532C320.077 342.532 320.078 342.532 320.079 342.532L320.075 342.532Z" stroke="#404040"/>
<path d="M340.137 349.765C340.137 349.765 340.137 349.765 340.137 349.765C340.137 349.764 340.137 349.763 340.137 349.763C340.137 349.763 340.137 349.764 340.137 349.765ZM340.273 349.523C340.252 349.542 340.232 349.565 340.214 349.592C340.233 349.565 340.253 349.542 340.273 349.523ZM340.551 349.354L340.699 349.384L340.709 349.386L340.711 349.386C340.719 349.388 340.729 349.39 340.739 349.391C340.763 349.396 340.808 349.405 340.898 349.423L340.922 349.428L340.946 349.435L341.59 349.631C342.225 349.793 343.867 350.218 345.248 350.589C345.947 350.769 346.594 350.935 347.078 351.056C347.21 351.089 347.328 351.119 347.432 351.144C347.451 350.818 347.46 350.32 347.46 349.606C347.46 348.881 347.457 348.611 347.453 348.429C347.453 348.399 347.452 348.372 347.452 348.344C347.449 348.204 347.447 348.08 347.447 347.76V347.316C347.447 347.231 347.444 347.153 347.441 347.07C347.435 346.886 347.429 346.678 347.447 346.313L347.447 346.311L347.475 345.815L345.55 345.512L345.547 345.512C344.873 345.402 344.225 345.298 343.737 345.22C343.301 345.15 342.992 345.1 342.906 345.085C342.256 344.986 339.68 344.569 338.058 344.306C337.439 344.206 336.959 344.128 336.777 344.099L336.777 344.099L336.774 344.098C335.062 343.812 332.817 343.445 330.984 343.15C330.067 343.003 329.253 342.873 328.661 342.781C328.484 342.753 328.327 342.729 328.193 342.708C328.225 342.887 328.261 343.085 328.286 343.245C328.327 343.489 328.445 343.783 328.595 344.086C328.668 344.234 328.744 344.376 328.816 344.508C328.827 344.528 328.838 344.548 328.849 344.568C328.907 344.674 328.964 344.779 329.007 344.866C329.025 344.902 329.105 345.019 329.261 345.209C329.406 345.386 329.591 345.595 329.788 345.802C329.985 346.01 330.189 346.21 330.373 346.373C330.566 346.544 330.704 346.643 330.775 346.678C330.775 346.678 330.775 346.678 330.776 346.679C330.781 346.681 330.817 346.696 330.905 346.726C330.99 346.755 331.105 346.793 331.247 346.837C331.529 346.925 331.906 347.037 332.349 347.165C333.233 347.42 334.367 347.737 335.497 348.046C336.628 348.355 337.752 348.656 338.616 348.88C339.048 348.992 339.413 349.084 339.681 349.149C339.815 349.181 339.921 349.206 339.998 349.222C340.062 349.236 340.087 349.239 340.089 349.24L340.144 349.242L340.213 349.265C340.23 349.271 340.242 349.274 340.249 349.277C340.314 349.286 340.393 349.306 340.551 349.354ZM341.077 349.667C341.09 349.695 341.103 349.73 341.112 349.77C341.103 349.73 341.09 349.695 341.077 349.667ZM340.893 349.457C340.9 349.462 340.908 349.467 340.916 349.473C340.907 349.466 340.899 349.461 340.893 349.457ZM327.699 342.636C327.699 342.636 327.701 342.636 327.703 342.636C327.7 342.636 327.699 342.636 327.699 342.636ZM347.392 351.517C347.392 351.517 347.392 351.516 347.393 351.513C347.392 351.516 347.392 351.517 347.392 351.517Z" stroke="#404040"/>
<path d="M322.292 346.272L322.292 346.272L322.283 346.274C320.882 346.481 319.466 347.353 318.723 348.467C318.389 348.985 318.193 349.53 317.576 351.905C317.176 353.478 316.749 355.121 316.627 355.566C316.557 355.822 316.405 356.412 316.224 357.115C316.096 357.61 315.954 358.162 315.816 358.694C315.755 358.926 315.693 359.165 315.631 359.404C315.351 360.482 315.069 361.565 314.948 362.007C314.879 362.265 314.864 362.352 314.853 362.42C314.852 362.427 314.851 362.433 314.85 362.439C314.836 362.53 314.821 362.624 314.763 362.843C314.731 362.967 314.709 363.029 314.688 363.087C314.686 363.096 314.683 363.104 314.68 363.112C314.661 363.166 314.634 363.248 314.577 363.457C314.484 363.804 314.461 363.888 314.438 363.973C314.416 364.056 314.395 364.138 314.311 364.463C314.23 364.806 314.147 365.137 314.08 365.398C314.073 365.427 314.065 365.456 314.058 365.483C314.489 365.503 315.255 365.502 316.608 365.496C317.487 365.49 318.284 365.48 318.862 365.47C319.065 365.466 319.24 365.463 319.381 365.459C319.397 365.361 319.415 365.247 319.436 365.122C319.499 364.729 319.583 364.215 319.672 363.67L319.707 363.452C319.91 362.201 320.13 360.85 320.196 360.425L320.196 360.425L320.198 360.415C320.237 360.194 320.623 357.8 321.05 355.09L321.05 355.088C321.836 350.211 322.237 347.737 322.331 347.211L322.331 347.211L322.332 347.204C322.38 346.959 322.433 346.576 322.469 346.243C322.412 346.253 322.353 346.262 322.292 346.272ZM319.318 365.853L319.319 365.851C319.313 365.88 319.311 365.91 319.311 365.943C319.311 365.918 319.313 365.898 319.313 365.896L319.313 365.896L319.314 365.882L319.316 365.87L319.318 365.853Z" stroke="#404040"/>
<path d="M324.953 347.44L324.953 347.44L324.954 347.444C326.213 351.922 327.415 356.18 327.548 356.628L327.575 356.706L330.403 356.694L330.403 356.694L332.77 356.684L332.577 356.324L332.577 356.324C330.41 352.281 329.48 350.504 329.045 349.667C328.736 349.071 328.682 348.963 328.618 348.862C328.592 348.82 328.564 348.78 328.515 348.706L328.144 348.15C328.091 348.07 327.952 347.918 327.715 347.719C327.486 347.528 327.188 347.313 326.843 347.105C326.198 346.717 325.413 346.369 324.617 346.224C324.617 346.224 324.617 346.224 324.617 346.224C324.702 346.551 324.821 346.984 324.953 347.44ZM324.49 345.701C324.49 345.699 324.49 345.698 324.489 345.697C324.489 345.697 324.489 345.697 324.489 345.697C324.489 345.697 324.49 345.699 324.49 345.701ZM324.188 346.172C324.183 346.173 324.183 346.173 324.188 346.172L324.188 346.172Z" stroke="#404040"/>
<circle cx="820.32" cy="326.64" r="4.22" fill="#404040" stroke="#404040" stroke-width="5"/>
<circle cx="820.32" cy="342" r="5.72" stroke="#404040" stroke-width="2"/>
<circle cx="820.32" cy="357.36" r="6.22" stroke="#404040"/>
<circle cx="835.68" cy="349.68" r="5.97" stroke="#404040" stroke-width="1.5"/>
<circle cx="835.68" cy="334.32" r="4.72" stroke="#404040" stroke-width="4"/>
<defs>
<clipPath id="clip0_906_263">
<rect width="191" height="18" fill="white" transform="translate(418 185)"/>
</clipPath>
<clipPath id="clip1_906_263">
<rect width="191" height="194" fill="white" transform="translate(418 213)"/>
</clipPath>
</defs>
</svg>
