<svg width="589" height="877" viewBox="0 0 589 877" fill="none" xmlns="http://www.w3.org/2000/svg">
<line x1="336.5" y1="-3.03282e-08" x2="336.5" y2="873" stroke="#404040" stroke-dasharray="8 8"/>
<line x1="420.5" y1="-3.03282e-08" x2="420.5" y2="873" stroke="#404040" stroke-dasharray="8 8"/>
<line x1="588.5" y1="4" x2="588.5" y2="877" stroke="#404040" stroke-dasharray="8 8"/>
<line x1="84.5" y1="-3.03282e-08" x2="84.5" y2="873" stroke="#404040" stroke-dasharray="8 8"/>
<line x1="0.5" y1="-3.03282e-08" x2="0.500027" y2="873" stroke="#404040" stroke-dasharray="8 8"/>
<line x1="504.5" y1="-3.03282e-08" x2="504.5" y2="873" stroke="#404040" stroke-dasharray="8 8"/>
<line x1="168.5" y1="-3.03282e-08" x2="168.5" y2="873" stroke="#404040" stroke-dasharray="8 8"/>
<line x1="588" y1="545.5" x2="-2.73826e-08" y2="545.5" stroke="#404040"/>
<line x1="588" y1="461.5" x2="-2.73826e-08" y2="461.5" stroke="#404040"/>
<line x1="588" y1="209.5" x2="-2.73826e-08" y2="209.5" stroke="#404040"/>
<line x1="588" y1="797.5" x2="-2.73826e-08" y2="797.5" stroke="#404040"/>
<line x1="588" y1="377.5" x2="-2.73826e-08" y2="377.5" stroke="#404040"/>
<line x1="588" y1="125.5" x2="-2.73826e-08" y2="125.5" stroke="#404040"/>
<line x1="588" y1="713.5" x2="-2.73826e-08" y2="713.5" stroke="#404040"/>
<line x1="588" y1="293.5" x2="-2.73826e-08" y2="293.5" stroke="#404040"/>
<line x1="588" y1="41.5" y2="41.5" stroke="#404040"/>
<line x1="588" y1="629.5" x2="-2.73826e-08" y2="629.5" stroke="#404040"/>
<line x1="252.5" y1="-3.03282e-08" x2="252.5" y2="873" stroke="#404040" stroke-dasharray="8 8"/>
<circle cx="283.76" cy="398.52" r="6.46" fill="#404040" stroke="#404040" stroke-width="5"/>
<circle cx="283.76" cy="419" r="7.96" stroke="#404040" stroke-width="2"/>
<circle cx="283.76" cy="439.48" r="8.46" stroke="#404040"/>
<circle cx="304.24" cy="429.24" r="8.21" stroke="#404040" stroke-width="1.5"/>
<circle cx="304.24" cy="408.76" r="6.96" stroke="#404040" stroke-width="4"/>
<path d="M213.595 311.701L213.595 311.702C212.883 316.192 211.929 322.07 211.33 325.757C211.241 326.305 211.16 326.805 211.089 327.245L211.089 327.245L211.089 327.247C210.965 327.989 210.864 328.675 210.801 329.18C210.786 329.299 210.773 329.407 210.763 329.502C210.952 329.475 211.185 329.431 211.44 329.373C212.078 329.228 212.784 329.011 213.208 328.811L213.208 328.81L213.217 328.806C213.695 328.592 214.257 328.243 214.475 328.074L214.89 327.725L215.781 326.782C216.241 326.209 216.436 325.962 216.648 325.41C216.879 324.812 217.119 323.881 217.611 321.939L217.611 321.939L217.612 321.934L218.73 317.674C218.846 317.175 219.733 313.731 220.704 310.004C221.193 308.129 221.637 306.405 221.959 305.139C222.12 304.506 222.25 303.989 222.34 303.624C222.344 303.607 222.348 303.589 222.352 303.573C222.175 303.563 221.958 303.553 221.706 303.544C220.947 303.518 219.895 303.5 218.735 303.5H214.914L214.608 305.426L214.608 305.428C214.395 306.726 213.933 309.552 213.595 311.701Z" stroke="#404040"/>
<path d="M201.344 315.2L201.344 315.2L201.34 315.2C200.206 315.209 199.175 315.231 198.43 315.257C198.247 315.264 198.083 315.271 197.938 315.277L199.339 317.819L199.339 317.819L199.343 317.827L200.462 319.944L200.599 320.126L200.623 320.158L200.641 320.193L201.387 321.614C201.651 322.107 201.815 322.401 201.928 322.601C201.957 322.653 201.984 322.701 202.009 322.744C202.077 322.863 202.13 322.956 202.181 323.053L202.181 323.053L202.186 323.062L202.433 323.557L202.486 323.663V323.739C202.486 323.74 202.487 323.741 202.487 323.742C202.5 323.775 202.523 323.825 202.56 323.895C202.633 324.034 202.743 324.217 202.884 324.432C203.163 324.861 203.539 325.389 203.921 325.906C204.301 326.422 204.682 326.922 204.968 327.293C205.11 327.478 205.23 327.631 205.313 327.738L205.409 327.861L205.435 327.893L205.441 327.901L205.441 327.901C205.44 327.901 205.441 327.901 205.441 327.901L205.441 327.902L205.447 327.909C205.454 327.917 205.466 327.931 205.484 327.95C205.519 327.988 205.575 328.046 205.655 328.118C205.813 328.262 206.06 328.46 206.405 328.661C207.034 329.029 207.997 329.412 209.345 329.481C209.346 329.465 209.348 329.447 209.349 329.429C209.357 329.249 209.34 329.017 209.297 328.74C209.21 328.186 209.028 327.516 208.811 326.844C208.378 325.498 207.83 324.224 207.72 324.004L207.698 323.96L207.685 323.912L206.861 320.897C206.76 320.541 206.65 320.154 206.538 319.763C206.239 318.715 205.932 317.637 205.776 317.051L205.772 317.037L205.769 317.023L205.769 317.023L205.769 317.023L205.769 317.022L205.769 317.022L205.768 317.019L205.766 317.007L205.756 316.959C205.747 316.917 205.733 316.855 205.716 316.779C205.682 316.627 205.633 316.418 205.574 316.19C205.483 315.837 205.375 315.471 205.268 315.196C205.249 315.196 205.229 315.195 205.209 315.195C204.987 315.189 204.672 315.184 204.286 315.182C203.514 315.178 202.469 315.182 201.344 315.2ZM202.479 323.718C202.479 323.718 202.479 323.719 202.48 323.722C202.479 323.72 202.479 323.718 202.479 323.718Z" stroke="#404040"/>
<path d="M178.547 322.499C178.546 322.505 178.546 322.512 178.545 322.519C178.505 323.053 178.5 324.094 178.5 326.098V329.943L178.599 329.964C178.782 330.001 179.329 330.09 179.982 330.195C180.254 330.239 180.545 330.286 180.836 330.334C181.439 330.433 182.346 330.579 183.237 330.722C183.789 330.811 184.335 330.899 184.798 330.974L178.547 322.499ZM178.547 322.499C180.95 323.143 192.369 326.133 193.821 326.476L197.706 327.506L197.713 327.507L197.713 327.507C199.917 328.059 200.678 328.345 201.365 328.793C201.7 329.011 202.104 329.383 202.441 329.722C202.605 329.887 202.746 330.038 202.847 330.147C202.897 330.202 202.936 330.246 202.963 330.276L202.994 330.31L202.995 330.312L203.427 330.86L203.669 331.28C203.797 331.532 203.962 331.984 204.111 332.491C204.26 333 204.381 333.524 204.43 333.897L204.431 333.903L204.431 333.903C204.443 333.991 204.454 334.066 204.462 334.13C204.352 334.117 204.203 334.097 204.005 334.069C203.567 334.007 202.898 333.905 201.9 333.748C199.905 333.432 196.601 332.895 191.198 332.006L191.196 332.005L184.798 330.974L178.547 322.499ZM178.179 322.399C178.174 322.397 178.176 322.398 178.182 322.4L178.179 322.399Z" stroke="#404040"/>
<path d="M228.767 323.443L228.766 323.444C228.525 323.574 228.377 323.651 228.274 323.706C228.178 323.756 228.12 323.787 228.061 323.82C227.969 323.873 227.892 323.925 227.632 324.098C227.588 324.127 227.54 324.16 227.485 324.197L226.743 324.691L226.717 324.709L226.689 324.723C226.506 324.814 226.313 324.892 226.1 324.978C226.003 325.017 225.902 325.058 225.796 325.102C225.439 325.252 224.955 325.47 224.214 325.863C223.447 326.279 222.581 326.744 221.815 327.156C221.1 327.54 220.473 327.877 220.094 328.083C219.323 328.504 217.879 329.374 216.89 330.499C216.686 330.733 216.475 331.076 216.308 331.381C216.226 331.53 216.158 331.662 216.111 331.758C216.088 331.805 216.069 331.843 216.057 331.869L216.051 331.883L215.812 332.597L215.806 332.616L215.799 332.634L215.799 332.634L215.799 332.634L215.798 332.634L215.798 332.634L215.798 332.635L215.797 332.638L215.791 332.653C215.785 332.667 215.777 332.687 215.767 332.713C215.746 332.765 215.718 332.838 215.689 332.922C215.627 333.097 215.57 333.287 215.551 333.423C215.514 333.683 215.459 333.998 215.41 334.247C215.5 334.225 215.605 334.198 215.722 334.168C216.153 334.057 216.748 333.897 217.454 333.704C218.866 333.319 220.712 332.803 222.553 332.282C224.394 331.761 226.228 331.235 227.613 330.83C228.305 330.627 228.884 330.455 229.295 330.329C229.445 330.283 229.572 330.243 229.672 330.211C229.673 330.198 229.674 330.184 229.675 330.17C229.687 329.952 229.698 329.638 229.705 329.25C229.721 328.477 229.725 327.424 229.716 326.281C229.716 326.28 229.716 326.28 229.716 326.279L229.674 322.95L228.767 323.443Z" stroke="#404040"/>
<path d="M203.123 335.963L203.123 335.963L203.113 335.966C202.863 336.04 202.61 336.115 202.378 336.184C201.9 336.327 201.509 336.443 201.404 336.47C201.27 336.503 200.548 336.697 199.824 336.909C199.457 337.016 199.064 337.128 198.726 337.224C198.663 337.241 198.602 337.259 198.544 337.275C198.287 337.348 198.079 337.407 197.958 337.442L197.951 337.444L197.943 337.446C196.584 337.8 191.481 339.271 190.733 339.502L190.244 339.658L190.195 343.566L190.195 343.566C190.177 344.951 190.177 346.001 190.197 346.695C190.198 346.745 190.2 346.793 190.202 346.839C190.339 346.751 190.487 346.663 190.635 346.589C190.703 346.554 190.773 346.521 190.865 346.478C191.432 346.21 192.818 345.556 199.748 341.821L199.75 341.82C200.49 341.425 201.27 340.848 201.895 340.33C202.206 340.072 202.474 339.832 202.674 339.643C202.775 339.548 202.856 339.468 202.916 339.405C202.947 339.373 202.97 339.348 202.987 339.328C203.002 339.312 203.009 339.303 203.01 339.301C203.011 339.301 203.011 339.301 203.01 339.301C203.097 339.181 203.165 339.075 203.21 338.999C203.233 338.961 203.25 338.932 203.26 338.913L203.272 338.892L203.273 338.89C203.342 338.753 203.417 338.622 203.497 338.485C203.743 338.06 204.028 337.567 204.282 336.588L204.282 336.588L204.283 336.585C204.375 336.242 204.423 336.071 204.453 335.969C204.472 335.901 204.483 335.863 204.492 335.825C204.501 335.788 204.503 335.771 204.511 335.698C204.515 335.67 204.519 335.632 204.526 335.581C204.434 335.6 204.324 335.626 204.2 335.656C203.889 335.734 203.504 335.842 203.123 335.963ZM204.791 335.544C204.793 335.545 204.794 335.545 204.794 335.545C204.794 335.545 204.793 335.545 204.791 335.544Z" stroke="#404040"/>
<path d="M232.624 345.308C232.633 345.328 232.641 345.351 232.648 345.376C232.641 345.351 232.633 345.328 232.624 345.308ZM216.24 335.876C215.893 335.822 215.603 335.777 215.384 335.744L218.971 341.392C218.981 341.396 218.994 341.402 219.011 341.408C219.047 341.422 219.093 341.439 219.152 341.459C219.268 341.499 219.423 341.549 219.612 341.608C219.99 341.726 220.495 341.875 221.085 342.046C222.265 342.387 223.778 342.81 225.285 343.222C226.793 343.634 228.293 344.035 229.445 344.334C230.022 344.484 230.51 344.607 230.868 344.693C231.047 344.737 231.191 344.77 231.296 344.792C231.395 344.814 231.431 344.819 231.431 344.819C231.431 344.82 231.429 344.82 231.424 344.819L231.496 344.822L231.565 344.845C231.599 344.856 231.619 344.862 231.629 344.865C231.63 344.866 231.631 344.866 231.632 344.866C231.706 344.876 231.801 344.899 232.027 344.967L232.231 345.008L232.248 345.012L232.253 345.012C232.262 345.014 232.273 345.016 232.287 345.019C232.317 345.025 232.378 345.037 232.498 345.061L232.522 345.066L232.546 345.073L233.408 345.335C234.252 345.551 236.445 346.117 238.288 346.614C239.22 346.854 240.084 347.075 240.73 347.237C240.992 347.302 241.217 347.358 241.395 347.4C241.398 347.368 241.4 347.334 241.403 347.297C241.433 346.86 241.446 346.164 241.446 345.141C241.446 344.174 241.442 343.813 241.437 343.569C241.437 343.529 241.436 343.492 241.435 343.456C241.432 343.269 241.428 343.105 241.428 342.679V342.088C241.428 341.966 241.425 341.858 241.421 341.746C241.413 341.504 241.405 341.24 241.429 340.759L241.429 340.757L241.475 339.946L238.758 339.519L238.755 339.518C237.852 339.371 236.987 339.232 236.336 339.127C235.754 339.034 235.345 338.968 235.235 338.949C234.372 338.818 230.937 338.261 228.772 337.91C227.947 337.776 227.306 337.673 227.062 337.634L227.062 337.634L227.059 337.633C224.776 337.251 221.783 336.762 219.338 336.369C218.115 336.172 217.03 335.999 216.24 335.876ZM218.386 340.955C218.645 341.184 218.843 341.329 218.958 341.387L215.056 336.766L215.549 336.684C215.549 336.685 215.549 336.686 215.549 336.686C215.608 337.038 215.775 337.448 215.977 337.856C216.076 338.056 216.179 338.247 216.275 338.423C216.289 338.45 216.304 338.477 216.319 338.504C216.396 338.646 216.471 338.783 216.527 338.895C216.561 338.963 216.678 339.132 216.886 339.385C217.082 339.624 217.331 339.906 217.596 340.184C217.861 340.463 218.137 340.734 218.386 340.955ZM232.258 345.014C232.257 345.014 232.257 345.013 232.256 345.013L232.257 345.013C232.258 345.014 232.258 345.014 232.258 345.014ZM241.799 347.489C241.799 347.489 241.797 347.489 241.794 347.489C241.798 347.489 241.799 347.489 241.799 347.489ZM241.35 347.734C241.349 347.735 241.349 347.736 241.349 347.736L241.35 347.734Z" stroke="#404040"/>
<path d="M208.179 339.947C208.179 339.947 208.179 339.948 208.179 339.948L208.179 339.947ZM208.179 339.947C208.448 339.903 208.64 339.872 208.662 339.861L208.179 339.947ZM207.696 340.532L207.696 340.532L207.687 340.533C205.775 340.816 203.843 342.004 202.824 343.531C202.362 344.25 202.094 345.003 201.273 348.165C200.74 350.262 200.17 352.453 200.009 353.044C199.916 353.386 199.712 354.175 199.47 355.114C199.3 355.775 199.111 356.51 198.926 357.217C198.846 357.526 198.763 357.845 198.68 358.164C198.306 359.602 197.931 361.045 197.77 361.632C197.676 361.982 197.655 362.103 197.64 362.201C197.639 362.21 197.637 362.218 197.636 362.226C197.617 362.344 197.598 362.464 197.524 362.748C197.482 362.907 197.455 362.984 197.427 363.061C197.424 363.072 197.42 363.083 197.416 363.094C197.389 363.172 197.352 363.284 197.276 363.566C197.151 364.029 197.12 364.142 197.09 364.255C197.061 364.365 197.033 364.476 196.92 364.91C196.812 365.366 196.701 365.808 196.612 366.156C196.599 366.209 196.586 366.26 196.573 366.308C196.559 366.365 196.546 366.417 196.533 366.466C196.551 366.467 196.57 366.468 196.59 366.469C197.137 366.504 198.182 366.504 200.146 366.495C201.317 366.486 202.382 366.473 203.153 366.46C203.493 366.454 203.775 366.448 203.984 366.442C204.01 366.284 204.042 366.085 204.079 365.855C204.164 365.333 204.275 364.65 204.393 363.925L204.441 363.63C204.712 361.962 205.005 360.159 205.093 359.592L205.093 359.592L205.095 359.582C205.147 359.286 205.662 356.091 206.231 352.479L206.231 352.477C207.279 345.974 207.813 342.677 207.939 341.978L207.939 341.978L207.94 341.97C208.007 341.626 208.081 341.086 208.129 340.631C208.136 340.571 208.141 340.513 208.147 340.458C208.008 340.481 207.855 340.506 207.696 340.532ZM196.438 366.857C196.438 366.856 196.438 366.856 196.438 366.855L196.438 366.857C196.438 366.857 196.438 366.857 196.438 366.857ZM203.92 366.849L203.922 366.834C203.917 366.862 203.914 366.892 203.914 366.924C203.914 366.899 203.916 366.879 203.916 366.877L203.916 366.877L203.918 366.863L203.92 366.849ZM204.35 366.429C204.351 366.429 204.351 366.429 204.351 366.429C204.351 366.429 204.351 366.429 204.35 366.429C204.35 366.429 204.35 366.429 204.35 366.429Z" stroke="#404040"/>
<path d="M211.111 342.299L211.111 342.299L211.112 342.303C212.792 348.284 214.399 353.972 214.572 354.554L214.648 354.775L218.537 354.759L218.537 354.759L221.971 354.744L221.582 354.019L221.582 354.019C218.693 348.63 217.454 346.261 216.874 345.145C216.464 344.355 216.39 344.206 216.302 344.066C216.265 344.007 216.226 343.95 216.158 343.849L215.664 343.107C215.58 342.981 215.38 342.765 215.06 342.497C214.747 342.236 214.344 341.945 213.876 341.664C212.937 341.099 211.772 340.592 210.597 340.427C210.617 340.502 210.638 340.585 210.661 340.674C210.775 341.112 210.934 341.69 211.111 342.299ZM210.218 340.399C210.219 340.399 210.22 340.399 210.222 340.398C210.22 340.399 210.218 340.399 210.218 340.399Z" stroke="#404040"/>
</svg>
