<svg width="18" height="24" viewBox="0 0 18 24" fill="none" xmlns="http://www.w3.org/2000/svg">
<line x1="4" y1="3" x2="4" y2="21" stroke="white" stroke-width="2"/>
<path d="M9.41721 10.925L7.9579 9.77608C7.85313 9.69793 7.79326 9.58851 7.7783 9.44783C7.76333 9.30715 7.78578 9.1821 7.84565 9.07268C7.84565 9.05705 7.89055 9.01016 7.98036 8.932L9.48456 7.5721L7.50889 7.40797C7.44902 7.39234 7.40412 7.38452 7.37418 7.38452C7.35921 7.36889 7.34425 7.36108 7.32928 7.36108C7.22451 7.32982 7.13471 7.25166 7.05987 7.12661C7 6.98593 6.98503 6.84525 7.01497 6.70457L7.57624 4.89918C7.60617 4.77413 7.68849 4.68034 7.8232 4.61782C7.9579 4.5553 8.07764 4.53966 8.18241 4.57093C8.21235 4.57093 8.27222 4.59437 8.36202 4.64127L10.0458 5.71981L9.61927 3.7034C9.6043 3.65651 9.59682 3.61743 9.59682 3.58617C9.59682 3.5549 9.59682 3.53146 9.59682 3.51583C9.59682 3.39078 9.64172 3.27354 9.73152 3.16413C9.8363 3.05471 9.95603 3 10.0907 3H11.9093C12.044 3 12.1562 3.05471 12.246 3.16413C12.3508 3.27354 12.4032 3.39078 12.4032 3.51583C12.4032 3.53146 12.4032 3.5549 12.4032 3.58617C12.4032 3.61743 12.3957 3.65651 12.3807 3.7034L11.9093 5.71981L13.638 4.64127C13.7278 4.59437 13.7877 4.57093 13.8176 4.57093C13.9373 4.53966 14.0571 4.5553 14.1768 4.61782C14.3115 4.68034 14.3938 4.77413 14.4238 4.89918L14.985 6.70457C15.015 6.84525 15 6.98593 14.9401 7.12661C14.8803 7.25166 14.7905 7.32982 14.6707 7.36108C14.6558 7.36108 14.6333 7.36889 14.6034 7.38452C14.5884 7.38452 14.551 7.39234 14.4911 7.40797L12.5154 7.59554L14.0196 8.932C14.1094 9.01016 14.1544 9.05705 14.1544 9.07268C14.2292 9.1821 14.2591 9.30715 14.2442 9.44783C14.2292 9.58851 14.1618 9.69793 14.0421 9.77608L12.5828 10.925C12.4631 10.9875 12.3358 11.0109 12.2011 10.9953C12.0664 10.964 11.9616 10.8937 11.8868 10.7843C11.8718 10.7687 11.8569 10.753 11.8419 10.7374C11.8269 10.7061 11.8045 10.6749 11.7746 10.6436L10.9888 8.72098L10.2254 10.6436C10.2105 10.6749 10.188 10.7061 10.1581 10.7374C10.1431 10.753 10.1282 10.7687 10.1132 10.7843C10.0533 10.8937 9.94855 10.964 9.79888 10.9953C9.66417 11.0109 9.53695 10.9875 9.41721 10.925Z" fill="white"/>
<path d="M9.41721 20.925L7.9579 19.7761C7.85313 19.6979 7.79326 19.5885 7.7783 19.4478C7.76333 19.3072 7.78578 19.1821 7.84565 19.0727C7.84565 19.0571 7.89055 19.0102 7.98036 18.932L9.48456 17.5721L7.50889 17.408C7.44902 17.3923 7.40412 17.3845 7.37418 17.3845C7.35921 17.3689 7.34425 17.3611 7.32928 17.3611C7.22451 17.3298 7.13471 17.2517 7.05987 17.1266C7 16.9859 6.98503 16.8453 7.01497 16.7046L7.57624 14.8992C7.60617 14.7741 7.68849 14.6803 7.8232 14.6178C7.9579 14.5553 8.07764 14.5397 8.18241 14.5709C8.21235 14.5709 8.27222 14.5944 8.36202 14.6413L10.0458 15.7198L9.61927 13.7034C9.6043 13.6565 9.59682 13.6174 9.59682 13.5862C9.59682 13.5549 9.59682 13.5315 9.59682 13.5158C9.59682 13.3908 9.64172 13.2735 9.73152 13.1641C9.8363 13.0547 9.95603 13 10.0907 13H11.9093C12.044 13 12.1562 13.0547 12.246 13.1641C12.3508 13.2735 12.4032 13.3908 12.4032 13.5158C12.4032 13.5315 12.4032 13.5549 12.4032 13.5862C12.4032 13.6174 12.3957 13.6565 12.3807 13.7034L11.9093 15.7198L13.638 14.6413C13.7278 14.5944 13.7877 14.5709 13.8176 14.5709C13.9373 14.5397 14.0571 14.5553 14.1768 14.6178C14.3115 14.6803 14.3938 14.7741 14.4238 14.8992L14.985 16.7046C15.015 16.8453 15 16.9859 14.9401 17.1266C14.8803 17.2517 14.7905 17.3298 14.6707 17.3611C14.6558 17.3611 14.6333 17.3689 14.6034 17.3845C14.5884 17.3845 14.551 17.3923 14.4911 17.408L12.5154 17.5955L14.0196 18.932C14.1094 19.0102 14.1544 19.0571 14.1544 19.0727C14.2292 19.1821 14.2591 19.3072 14.2442 19.4478C14.2292 19.5885 14.1618 19.6979 14.0421 19.7761L12.5828 20.925C12.4631 20.9875 12.3358 21.0109 12.2011 20.9953C12.0664 20.964 11.9616 20.8937 11.8868 20.7843C11.8718 20.7687 11.8569 20.753 11.8419 20.7374C11.8269 20.7061 11.8045 20.6749 11.7746 20.6436L10.9888 18.721L10.2254 20.6436C10.2105 20.6749 10.188 20.7061 10.1581 20.7374C10.1431 20.753 10.1282 20.7687 10.1132 20.7843C10.0533 20.8937 9.94855 20.964 9.79888 20.9953C9.66417 21.0109 9.53695 20.9875 9.41721 20.925Z" fill="white"/>
</svg>
