<svg width="72" height="24" viewBox="0 0 72 24" fill="none" xmlns="http://www.w3.org/2000/svg">
<path d="M36.08 19.2C35.3067 19.2 34.66 19.0667 34.14 18.8C33.6333 18.5333 33.2133 18.1933 32.88 17.78V18.52C32.88 18.6533 32.8333 18.7667 32.74 18.86C32.66 18.9533 32.5467 19 32.4 19H30.82C30.6867 19 30.5733 18.9533 30.48 18.86C30.3867 18.7667 30.34 18.6533 30.34 18.52V5.28C30.34 5.14667 30.3867 5.03333 30.48 4.94C30.5733 4.84667 30.6867 4.8 30.82 4.8H32.52C32.6667 4.8 32.78 4.84667 32.86 4.94C32.9533 5.03333 33 5.14667 33 5.28V9.72C33.3333 9.33333 33.7467 9.02 34.24 8.78C34.7467 8.52667 35.36 8.4 36.08 8.4C36.7867 8.4 37.4 8.52 37.92 8.76C38.44 9 38.8733 9.34 39.22 9.78C39.58 10.2067 39.8533 10.7067 40.04 11.28C40.2267 11.8533 40.3267 12.4733 40.34 13.14C40.3533 13.38 40.36 13.6 40.36 13.8C40.36 13.9867 40.3533 14.2 40.34 14.44C40.3133 15.1333 40.2067 15.7733 40.02 16.36C39.8333 16.9333 39.5667 17.4333 39.22 17.86C38.8733 18.2867 38.44 18.62 37.92 18.86C37.4 19.0867 36.7867 19.2 36.08 19.2ZM35.34 17.06C35.9133 17.06 36.36 16.94 36.68 16.7C37 16.4467 37.2267 16.12 37.36 15.72C37.5067 15.32 37.5933 14.88 37.62 14.4C37.6467 14 37.6467 13.6 37.62 13.2C37.5933 12.72 37.5067 12.28 37.36 11.88C37.2267 11.48 37 11.16 36.68 10.92C36.36 10.6667 35.9133 10.54 35.34 10.54C34.8067 10.54 34.3733 10.66 34.04 10.9C33.7067 11.14 33.4533 11.4467 33.28 11.82C33.1067 12.18 33.0133 12.56 33 12.96C32.9867 13.2 32.98 13.46 32.98 13.74C32.98 14.0067 32.9867 14.26 33 14.5C33.0267 14.9133 33.1133 15.32 33.26 15.72C33.42 16.1067 33.6667 16.4267 34 16.68C34.3467 16.9333 34.7933 17.06 35.34 17.06ZM46.4456 19.2C45.6323 19.2 44.9256 19.02 44.3256 18.66C43.739 18.2867 43.2856 17.7667 42.9656 17.1C42.6456 16.42 42.4856 15.62 42.4856 14.7V9.08C42.4856 8.94667 42.5323 8.83333 42.6256 8.74C42.719 8.64667 42.8323 8.6 42.9656 8.6H44.7256C44.8723 8.6 44.9856 8.64667 45.0656 8.74C45.159 8.83333 45.2056 8.94667 45.2056 9.08V14.58C45.2056 16.2333 45.9323 17.06 47.3856 17.06C48.079 17.06 48.6256 16.84 49.0256 16.4C49.439 15.96 49.6456 15.3533 49.6456 14.58V9.08C49.6456 8.94667 49.6923 8.83333 49.7856 8.74C49.879 8.64667 49.9923 8.6 50.1256 8.6H51.8856C52.019 8.6 52.1323 8.64667 52.2256 8.74C52.319 8.83333 52.3656 8.94667 52.3656 9.08V18.52C52.3656 18.6533 52.319 18.7667 52.2256 18.86C52.1323 18.9533 52.019 19 51.8856 19H50.2656C50.119 19 49.999 18.9533 49.9056 18.86C49.8256 18.7667 49.7856 18.6533 49.7856 18.52V17.7C49.4256 18.1667 48.979 18.5333 48.4456 18.8C47.9123 19.0667 47.2456 19.2 46.4456 19.2ZM55.4875 19C55.3542 19 55.2408 18.9533 55.1475 18.86C55.0542 18.7667 55.0075 18.6533 55.0075 18.52V9.08C55.0075 8.94667 55.0542 8.83333 55.1475 8.74C55.2408 8.64667 55.3542 8.6 55.4875 8.6H57.0475C57.1808 8.6 57.2942 8.64667 57.3875 8.74C57.4808 8.83333 57.5275 8.94667 57.5275 9.08V9.76C57.8075 9.38667 58.1808 9.07333 58.6475 8.82C59.1275 8.55333 59.6942 8.41333 60.3475 8.4C61.8675 8.37333 62.9275 8.96667 63.5275 10.18C63.8342 9.64667 64.2742 9.22 64.8475 8.9C65.4342 8.56667 66.0808 8.4 66.7875 8.4C67.4808 8.4 68.1075 8.56 68.6675 8.88C69.2408 9.2 69.6875 9.68667 70.0075 10.34C70.3408 10.98 70.5075 11.7933 70.5075 12.78V18.52C70.5075 18.6533 70.4608 18.7667 70.3675 18.86C70.2742 18.9533 70.1608 19 70.0275 19H68.3875C68.2542 19 68.1408 18.9533 68.0475 18.86C67.9542 18.7667 67.9075 18.6533 67.9075 18.52V12.94C67.9075 12.34 67.8208 11.8667 67.6475 11.52C67.4742 11.16 67.2408 10.9067 66.9475 10.76C66.6542 10.6133 66.3275 10.54 65.9675 10.54C65.6742 10.54 65.3808 10.6133 65.0875 10.76C64.7942 10.9067 64.5542 11.16 64.3675 11.52C64.1808 11.8667 64.0875 12.34 64.0875 12.94V18.52C64.0875 18.6533 64.0408 18.7667 63.9475 18.86C63.8542 18.9533 63.7408 19 63.6075 19H61.9675C61.8208 19 61.7008 18.9533 61.6075 18.86C61.5275 18.7667 61.4875 18.6533 61.4875 18.52V12.94C61.4875 12.34 61.3942 11.8667 61.2075 11.52C61.0208 11.16 60.7808 10.9067 60.4875 10.76C60.1942 10.6133 59.8808 10.54 59.5475 10.54C59.2408 10.54 58.9408 10.62 58.6475 10.78C58.3542 10.9267 58.1142 11.1733 57.9275 11.52C57.7408 11.8667 57.6475 12.34 57.6475 12.94V18.52C57.6475 18.6533 57.6008 18.7667 57.5075 18.86C57.4142 18.9533 57.3008 19 57.1675 19H55.4875Z" fill="white"/>
<path d="M13.163 3.23393C13.2896 2.42712 13.4629 1.36692 13.5429 0.880157L13.6829 -9.53674e-06H15.2757C16.1488 -9.53674e-06 16.862 0.0266628 16.862 0.0533342C16.862 0.0866737 16.5621 1.2669 16.1955 2.67383C15.8289 4.08076 15.4957 5.37434 15.4557 5.5477L15.0358 7.14801C14.6699 8.59256 14.6626 8.60159 14.3111 9.03952L14.3094 9.0417L13.9628 9.40843L13.7962 9.54846C13.7029 9.62181 13.4762 9.76183 13.283 9.84852C12.9297 10.0152 12.1633 10.1886 12.09 10.1219C12.07 10.1019 12.13 9.62181 12.2233 9.0617C12.4299 7.78813 12.8564 5.16763 13.163 3.23393Z" fill="white"/>
<path d="M7.198 4.44088C7.198 4.42088 7.8978 4.3942 8.7509 4.38754C9.59733 4.3742 10.3238 4.38087 10.3505 4.3942C10.4782 4.63859 10.5971 5.22103 10.5971 5.22103C10.677 5.52108 10.8636 6.16787 11.0036 6.6613L11.3128 7.79281C11.4055 7.97835 12.1473 9.741 11.89 10.1219C10.6637 10.1121 10.1438 9.45516 10.1438 9.45516C10.1438 9.45516 8.9946 7.99861 8.9946 7.79281L8.90187 7.60726C8.8529 7.5142 8.80422 7.44144 8.60427 7.06804L8.32435 6.53461L8.26437 6.45459L7.83782 5.64777L7.26465 4.60758C7.23132 4.53423 7.198 4.46088 7.198 4.44088Z" fill="white"/>
<path d="M0 10.2553V8.66162C0 7.16801 0.00666481 7.06132 0.119967 7.09466C0.55318 7.21469 5.41183 8.48826 5.97834 8.62162L7.43794 9.00836C8.26437 9.21506 8.57762 9.32842 8.86421 9.51512C9.15079 9.70182 9.51736 10.1219 9.51736 10.1219L9.69064 10.3419L9.79062 10.5153C9.90392 10.7353 10.0572 11.2554 10.0972 11.5622C10.1372 11.8422 10.1305 11.8689 10.0039 11.8689C9.87726 11.8689 8.97084 11.7289 4.91864 11.0621L2.5193 10.6753C2.06609 10.602 1.39961 10.4953 1.03305 10.4353C0.666482 10.3753 0.286587 10.3153 0.186615 10.2953L0 10.2553Z" fill="white"/>
<path d="M18.4528 7.7928C18.731 7.60726 18.6148 7.68147 18.948 7.50144L19.5612 7.16804L19.5812 8.72834C19.5879 9.5885 19.5745 10.3153 19.5479 10.342C19.4746 10.402 14.0627 11.9356 13.9094 11.9356C13.8228 11.9356 13.8028 11.8956 13.8228 11.7822C13.8428 11.7022 13.8761 11.5222 13.8961 11.3822C13.9161 11.2421 14.0019 11.0398 14.0019 11.0398L14.0946 10.7615C14.0946 10.7615 14.2627 10.3953 14.4426 10.1886C14.8364 9.74099 15.4024 9.4018 15.6956 9.24177C15.9889 9.08174 16.6887 8.70833 17.2419 8.40828C17.8084 8.10822 17.9892 8.07111 18.1746 7.97834L18.4528 7.7928Z" fill="white"/>
<path d="M8.73091 12.369C8.78423 12.3557 9.07082 12.269 9.36407 12.1823C9.65732 12.089 9.95724 12.0156 10.0306 12.0156C10.1439 12.0156 10.1444 12.0639 10.1444 12.0639V12.153C10.1073 12.4313 10.1439 12.2423 10.0372 12.6424C9.90392 13.1558 9.73643 13.359 9.6437 13.5446C9.6437 13.5446 9.60314 13.6223 9.53069 13.7226C9.45824 13.8229 8.83089 14.4094 8.24438 14.7228C5.22522 16.3498 5.00731 16.4205 4.82185 16.5133C4.63639 16.606 4.43211 16.7765 4.43211 16.7765C4.38545 16.7965 4.37212 16.2497 4.38545 15.2095L4.40545 13.6092L4.71869 13.5092C4.99862 13.4225 6.91808 12.8691 7.43127 12.7357C7.54458 12.7024 7.85782 12.6157 8.13108 12.5357C8.40434 12.4557 8.6776 12.3823 8.73091 12.369Z" fill="white"/>
<path d="M13.8962 12.6624C13.8762 12.5357 13.8428 12.3557 13.8229 12.249C13.7962 12.129 13.8162 12.069 13.8695 12.069C13.9362 12.069 16.7154 12.5157 18.4282 12.8024C18.7615 12.8558 21.0542 13.2292 21.4941 13.2959C21.5674 13.3092 22.1605 13.4026 22.8137 13.5092L24 13.6959L23.9734 14.1694C23.96 14.4294 23.9734 14.4921 23.9734 14.6579V14.8798C23.9734 15.2566 23.98 15.0762 23.98 15.803C23.98 16.5698 23.96 16.8699 23.9067 16.8699C23.8601 16.8699 23.2602 16.7165 22.5604 16.5365C21.8673 16.3498 21.0408 16.1364 20.7276 16.0564L20.4002 15.9567C20.2195 15.9205 20.4075 15.9589 20.2147 15.9195C20.0293 15.8639 20.122 15.901 20.0278 15.8697C19.8438 15.8639 15.5424 14.6961 15.2758 14.5628C15.0092 14.4294 14.3729 13.7302 14.2801 13.5446C14.1874 13.3591 13.9495 12.9825 13.8962 12.6624Z" fill="white"/>
<path d="M11.105 13.8896C10.3386 14.0029 9.56544 14.4764 9.15222 15.0965C8.95894 15.3965 8.85231 15.7099 8.54572 16.8901C8.34578 17.677 8.13251 18.4971 8.07252 18.7172C8.01254 18.9372 7.83259 19.644 7.66597 20.2841C7.49935 20.9242 7.30607 21.671 7.23276 21.9378C7.15944 22.2111 7.1957 22.1463 7.14003 22.3578C7.10844 22.4779 7.10624 22.4449 7.0473 22.6634C6.95457 23.0072 6.99949 22.8379 6.91284 23.1713C6.83287 23.5114 6.74622 23.8315 6.73289 23.8981C6.70623 23.9982 6.83953 24.0048 8.30579 23.9982C9.18555 23.9915 9.90535 23.9781 9.90535 23.9715C9.90535 23.9581 10.2786 21.6777 10.3452 21.251C10.3652 21.1376 10.5585 19.9374 10.7718 18.5838C11.165 16.1433 11.3649 14.9098 11.4116 14.6497C11.4649 14.3763 11.5249 13.8162 11.4982 13.8229C11.4849 13.8296 11.305 13.8562 11.105 13.8896Z" fill="white"/>
<path d="M11.9966 13.876C11.9966 13.916 12.1033 14.3294 12.2366 14.7895C12.8697 17.0432 13.4762 19.1903 13.5362 19.3903L13.6095 19.6037L15.2024 19.597L16.802 19.5904L16.5087 19.0436C14.3427 15.0028 14.651 15.4928 14.4655 15.2145C14.2801 14.9362 14.3522 15.0445 14.2801 14.9362C14.0946 14.6578 13.1963 13.9826 12.2499 13.8493C12.0966 13.8226 11.9966 13.8359 11.9966 13.876Z" fill="white"/>
</svg>
