<svg width="24" height="24" viewBox="0 0 24 24" fill="none" xmlns="http://www.w3.org/2000/svg">
<path d="M13.163 3.23393C13.2896 2.42712 13.4629 1.36692 13.5429 0.880157L13.6829 -9.53674e-06H15.2757C16.1488 -9.53674e-06 16.862 0.0266628 16.862 0.0533342C16.862 0.0866737 16.5621 1.2669 16.1955 2.67383C15.8289 4.08076 15.4957 5.37434 15.4557 5.5477L15.0358 7.14801C14.6699 8.59256 14.6626 8.60159 14.3111 9.03952L14.3094 9.0417L13.9628 9.40843L13.7962 9.54846C13.7029 9.62181 13.4762 9.76183 13.283 9.84852C12.9297 10.0152 12.1633 10.1886 12.09 10.1219C12.07 10.1019 12.13 9.62181 12.2233 9.0617C12.4299 7.78813 12.8564 5.16763 13.163 3.23393Z" fill="white"/>
<path d="M7.198 4.44088C7.198 4.42088 7.8978 4.3942 8.7509 4.38754C9.59733 4.3742 10.3238 4.38087 10.3505 4.3942C10.4782 4.63859 10.5971 5.22103 10.5971 5.22103C10.677 5.52108 10.8636 6.16787 11.0036 6.6613L11.3128 7.79281C11.4055 7.97835 12.1473 9.741 11.89 10.1219C10.6637 10.1121 10.1438 9.45516 10.1438 9.45516C10.1438 9.45516 8.9946 7.99861 8.9946 7.79281L8.90187 7.60726C8.8529 7.5142 8.80422 7.44144 8.60427 7.06804L8.32435 6.53461L8.26437 6.45459L7.83782 5.64777L7.26465 4.60758C7.23132 4.53423 7.198 4.46088 7.198 4.44088Z" fill="white"/>
<path d="M0 10.2553V8.66162C0 7.16801 0.00666481 7.06132 0.119967 7.09466C0.55318 7.21469 5.41183 8.48826 5.97834 8.62162L7.43794 9.00836C8.26437 9.21506 8.57762 9.32842 8.86421 9.51512C9.15079 9.70182 9.51736 10.1219 9.51736 10.1219L9.69064 10.3419L9.79062 10.5153C9.90392 10.7353 10.0572 11.2554 10.0972 11.5622C10.1372 11.8422 10.1305 11.8689 10.0039 11.8689C9.87726 11.8689 8.97084 11.7289 4.91864 11.0621L2.5193 10.6753C2.06609 10.602 1.39961 10.4953 1.03305 10.4353C0.666482 10.3753 0.286587 10.3153 0.186615 10.2953L0 10.2553Z" fill="white"/>
<path d="M18.4528 7.7928C18.731 7.60726 18.6148 7.68147 18.948 7.50144L19.5612 7.16804L19.5812 8.72834C19.5879 9.5885 19.5745 10.3153 19.5479 10.342C19.4746 10.402 14.0627 11.9356 13.9094 11.9356C13.8228 11.9356 13.8028 11.8956 13.8228 11.7822C13.8428 11.7022 13.8761 11.5222 13.8961 11.3822C13.9161 11.2421 14.0019 11.0398 14.0019 11.0398L14.0946 10.7615C14.0946 10.7615 14.2627 10.3953 14.4426 10.1886C14.8364 9.74099 15.4024 9.4018 15.6956 9.24177C15.9889 9.08174 16.6887 8.70833 17.2419 8.40828C17.8084 8.10822 17.9892 8.07111 18.1746 7.97834L18.4528 7.7928Z" fill="white"/>
<path d="M8.73091 12.369C8.78423 12.3557 9.07082 12.269 9.36407 12.1823C9.65732 12.089 9.95724 12.0156 10.0306 12.0156C10.1439 12.0156 10.1444 12.0639 10.1444 12.0639V12.153C10.1073 12.4313 10.1439 12.2423 10.0372 12.6424C9.90392 13.1558 9.73643 13.359 9.6437 13.5446C9.6437 13.5446 9.60314 13.6223 9.53069 13.7226C9.45824 13.8229 8.83089 14.4094 8.24438 14.7228C5.22522 16.3498 5.00731 16.4205 4.82185 16.5133C4.63639 16.606 4.43211 16.7765 4.43211 16.7765C4.38545 16.7965 4.37212 16.2497 4.38545 15.2095L4.40545 13.6092L4.71869 13.5092C4.99862 13.4225 6.91808 12.8691 7.43127 12.7357C7.54458 12.7024 7.85782 12.6157 8.13108 12.5357C8.40434 12.4557 8.6776 12.3823 8.73091 12.369Z" fill="white"/>
<path d="M13.8962 12.6624C13.8762 12.5357 13.8428 12.3557 13.8229 12.249C13.7962 12.129 13.8162 12.069 13.8695 12.069C13.9362 12.069 16.7154 12.5157 18.4282 12.8024C18.7615 12.8558 21.0542 13.2292 21.4941 13.2959C21.5674 13.3092 22.1605 13.4026 22.8137 13.5092L24 13.6959L23.9734 14.1694C23.96 14.4294 23.9734 14.4921 23.9734 14.6579V14.8798C23.9734 15.2566 23.98 15.0762 23.98 15.803C23.98 16.5698 23.96 16.8699 23.9067 16.8699C23.8601 16.8699 23.2602 16.7165 22.5604 16.5365C21.8673 16.3498 21.0408 16.1364 20.7276 16.0564L20.4002 15.9567C20.2195 15.9205 20.4075 15.9589 20.2147 15.9195C20.0293 15.8639 20.122 15.901 20.0278 15.8697C19.8438 15.8639 15.5424 14.6961 15.2758 14.5628C15.0092 14.4294 14.3729 13.7302 14.2801 13.5446C14.1874 13.3591 13.9495 12.9825 13.8962 12.6624Z" fill="white"/>
<path d="M11.105 13.8896C10.3386 14.0029 9.56544 14.4764 9.15222 15.0965C8.95894 15.3965 8.85231 15.7099 8.54572 16.8901C8.34578 17.677 8.13251 18.4971 8.07252 18.7172C8.01254 18.9372 7.83259 19.644 7.66597 20.2841C7.49935 20.9242 7.30607 21.671 7.23276 21.9378C7.15944 22.2111 7.1957 22.1463 7.14003 22.3578C7.10844 22.4779 7.10624 22.4449 7.0473 22.6634C6.95457 23.0072 6.99949 22.8379 6.91284 23.1713C6.83287 23.5114 6.74622 23.8315 6.73289 23.8981C6.70623 23.9982 6.83953 24.0048 8.30579 23.9982C9.18555 23.9915 9.90535 23.9781 9.90535 23.9715C9.90535 23.9581 10.2786 21.6777 10.3452 21.251C10.3652 21.1376 10.5585 19.9374 10.7718 18.5838C11.165 16.1433 11.3649 14.9098 11.4116 14.6497C11.4649 14.3763 11.5249 13.8162 11.4982 13.8229C11.4849 13.8296 11.305 13.8562 11.105 13.8896Z" fill="white"/>
<path d="M11.9966 13.876C11.9966 13.916 12.1033 14.3294 12.2366 14.7895C12.8697 17.0432 13.4762 19.1903 13.5362 19.3903L13.6095 19.6037L15.2024 19.597L16.802 19.5904L16.5087 19.0436C14.3427 15.0028 14.651 15.4928 14.4655 15.2145C14.2801 14.9362 14.3522 15.0445 14.2801 14.9362C14.0946 14.6578 13.1963 13.9826 12.2499 13.8493C12.0966 13.8226 11.9966 13.8359 11.9966 13.876Z" fill="white"/>
</svg>
