<svg width="18" height="18" viewBox="0 0 18 18" fill="none" xmlns="http://www.w3.org/2000/svg">
<path d="M11.5714 6.42857C11.5714 5.87629 11.1237 5.42857 10.5714 5.42857H9.42857C9.19188 5.42857 9 5.23669 9 5V5C9 4.76331 9.19188 4.57143 9.42857 4.57143H10.5714C11.1237 4.57143 11.5714 4.12371 11.5714 3.57143V2.42857C11.5714 2.19188 11.7633 2 12 2V2C12.2367 2 12.4286 2.19188 12.4286 2.42857V3.57143C12.4286 4.12371 12.8763 4.57143 13.4286 4.57143H14.5714C14.8081 4.57143 15 4.76331 15 5V5C15 5.23669 14.8081 5.42857 14.5714 5.42857H13.4286C12.8763 5.42857 12.4286 5.87629 12.4286 6.42857V7.57143C12.4286 7.80812 12.2367 8 12 8V8C11.7633 8 11.5714 7.80812 11.5714 7.57143V6.42857Z" fill="white"/>
<path d="M13.8 9.5C14.4627 9.5 15.0121 10.0425 14.8804 10.6921C14.6478 11.8392 14.0826 12.9026 13.2426 13.7426C12.1174 14.8679 10.5913 15.5 9 15.5C7.4087 15.5 5.88258 14.8679 4.75736 13.7426C3.91736 12.9026 3.35215 11.8392 3.11958 10.6921C2.9879 10.0425 3.53726 9.5 4.2 9.5V9.5C4.86274 9.5 5.3813 10.0517 5.59816 10.6779C5.77478 11.188 6.06551 11.6567 6.45442 12.0456C7.12955 12.7207 8.04522 13.1 9 13.1C9.95478 13.1 10.8705 12.7207 11.5456 12.0456C11.9345 11.6567 12.2252 11.188 12.4018 10.6779C12.6187 10.0517 13.1373 9.5 13.8 9.5V9.5Z" fill="white"/>
</svg>
