<svg width="24" height="24" viewBox="0 0 24 24" fill="none" xmlns="http://www.w3.org/2000/svg">
<rect width="24" height="24" rx="12" fill="#262626"/>
<rect x="1" y="1" width="22" height="22" rx="11" fill="#171717"/>
<rect x="3" y="3" width="18" height="18" rx="9" fill="#262626"/>
<rect x="6" y="8" width="12" height="8" rx="3" fill="#404040"/>
<rect x="7" y="10" width="2" height="3" rx="1" fill="white"/>
<rect x="15" y="10" width="2" height="3" rx="1" fill="white"/>
<path d="M13.6 12C13.8209 12 14.005 12.1822 13.9462 12.3951C13.8613 12.702 13.6786 12.9855 13.4142 13.2122C13.0391 13.5337 12.5304 13.7143 12 13.7143C11.4696 13.7143 10.9609 13.5337 10.5858 13.2122C10.3214 12.9855 10.1387 12.702 10.0538 12.3951C9.995 12.1822 10.1791 12 10.4 12V12C10.6209 12 10.7936 12.1872 10.8881 12.3868C10.9479 12.5131 11.0369 12.6291 11.1515 12.7273C11.3765 12.9202 11.6817 13.0286 12 13.0286C12.3183 13.0286 12.6235 12.9202 12.8485 12.7273C12.9631 12.6291 13.0521 12.5131 13.1119 12.3868C13.2064 12.1872 13.3791 12 13.6 12V12Z" fill="white"/>
</svg>
