<svg width="24" height="24" viewBox="0 0 24 24" fill="none" xmlns="http://www.w3.org/2000/svg">
<g clip-path="url(#clip0_881_21)">
<rect width="7" height="16" transform="translate(6 4)" fill="black"/>
<rect width="5" height="12" transform="translate(13 8)" fill="black"/>
<rect x="7" y="14" width="2" height="3" rx="1" fill="#E5E5E5"/>
<rect x="15" y="14" width="2" height="3" rx="1" fill="#E5E5E5"/>
<path d="M13.6 16C13.8209 16 14.005 16.1822 13.9462 16.3951C13.8613 16.702 13.6786 16.9855 13.4142 17.2122C13.0391 17.5337 12.5304 17.7143 12 17.7143C11.4696 17.7143 10.9609 17.5337 10.5858 17.2122C10.3214 16.9855 10.1387 16.702 10.0538 16.3951C9.995 16.1822 10.1791 16 10.4 16V16C10.6209 16 10.7936 16.1872 10.8881 16.3868C10.9479 16.5131 11.0369 16.6291 11.1515 16.7273C11.3765 16.9202 11.6817 17.0286 12 17.0286C12.3183 17.0286 12.6235 16.9202 12.8485 16.7273C12.9631 16.6291 13.0521 16.5131 13.1119 16.3868C13.2064 16.1872 13.3791 16 13.6 16V16Z" fill="#E5E5E5"/>
<mask id="mask0_881_21" style="mask-type:alpha" maskUnits="userSpaceOnUse" x="0" y="0" width="24" height="24">
<rect width="24" height="24" rx="1" fill="#D9D9D9"/>
</mask>
<g mask="url(#mask0_881_21)">
<path d="M6 22C5.45 22 4.97917 21.8042 4.5875 21.4125C4.19583 21.0208 4 20.55 4 20V4C4 3.45 4.19583 2.97917 4.5875 2.5875C4.97917 2.19583 5.45 2 6 2H13.5858C13.851 2 14.1054 2.10536 14.2929 2.29289L19.7071 7.70711C19.8946 7.89464 20 8.149 20 8.41421V20C20 20.55 19.8042 21.0208 19.4125 21.4125C19.0208 21.8042 18.55 22 18 22H6ZM14 9C13.4477 9 13 8.55228 13 8V5C13 4.44772 12.5523 4 12 4H6V19C6 19.5523 6.44772 20 7 20H17C17.5523 20 18 19.5523 18 19V10C18 9.44771 17.5523 9 17 9H14Z" fill="#E5E5E5"/>
</g>
</g>
<defs>
<clipPath id="clip0_881_21">
<rect width="24" height="24" fill="white"/>
</clipPath>
</defs>
</svg>
